<mxfile host="app.diagrams.net" modified="2023-10-10T07:57:28.271Z" agent="Mozilla/5.0 (Windows NT 10.0; Win64; x64) AppleWebKit/537.36 (KHTML, like Gecko) Chrome/117.0.0.0 Safari/537.36" etag="jB2Jf4qmPI0zJcrg663s" version="22.0.4" type="github">
  <diagram name="Страница — 1" id="i8iB9iJnGBKzG6_9LXSC">
    <mxGraphModel dx="875" dy="552" grid="1" gridSize="10" guides="1" tooltips="1" connect="1" arrows="1" fold="1" page="1" pageScale="1" pageWidth="1169" pageHeight="826" math="0" shadow="0">
      <root>
        <mxCell id="0" />
        <mxCell id="1" parent="0" />
        <mxCell id="_ez2GbapAwy16mK7dTrn-3" style="rounded=0;orthogonalLoop=1;jettySize=auto;html=1;exitX=1;exitY=0.3333333333333333;exitDx=0;exitDy=0;exitPerimeter=0;entryX=0;entryY=0.5;entryDx=0;entryDy=0;endFill=0;startFill=1;endSize=6;endArrow=none;" edge="1" parent="1" source="_ez2GbapAwy16mK7dTrn-1" target="_ez2GbapAwy16mK7dTrn-2">
          <mxGeometry relative="1" as="geometry" />
        </mxCell>
        <mxCell id="_ez2GbapAwy16mK7dTrn-10" style="orthogonalLoop=1;jettySize=auto;html=1;exitX=1;exitY=0.3333333333333333;exitDx=0;exitDy=0;exitPerimeter=0;entryX=0;entryY=0.5;entryDx=0;entryDy=0;rounded=0;endArrow=none;endFill=0;" edge="1" parent="1" source="_ez2GbapAwy16mK7dTrn-1" target="_ez2GbapAwy16mK7dTrn-6">
          <mxGeometry relative="1" as="geometry" />
        </mxCell>
        <mxCell id="_ez2GbapAwy16mK7dTrn-11" style="rounded=0;orthogonalLoop=1;jettySize=auto;html=1;exitX=1;exitY=0.3333333333333333;exitDx=0;exitDy=0;exitPerimeter=0;entryX=0;entryY=0;entryDx=0;entryDy=0;endArrow=none;endFill=0;" edge="1" parent="1" source="_ez2GbapAwy16mK7dTrn-1" target="_ez2GbapAwy16mK7dTrn-7">
          <mxGeometry relative="1" as="geometry" />
        </mxCell>
        <mxCell id="_ez2GbapAwy16mK7dTrn-1" value="Пользователь" style="shape=umlActor;verticalLabelPosition=bottom;verticalAlign=top;html=1;" vertex="1" parent="1">
          <mxGeometry x="370" y="340" width="30" height="60" as="geometry" />
        </mxCell>
        <mxCell id="_ez2GbapAwy16mK7dTrn-2" value="Ввести текст для разбора" style="ellipse;whiteSpace=wrap;html=1;" vertex="1" parent="1">
          <mxGeometry x="460" y="210" width="140" height="70" as="geometry" />
        </mxCell>
        <mxCell id="_ez2GbapAwy16mK7dTrn-4" value="&amp;lt;&amp;lt;Include&amp;gt;&amp;gt;" style="endArrow=open;endSize=12;dashed=1;html=1;rounded=0;entryX=0.5;entryY=1;entryDx=0;entryDy=0;exitX=0.5;exitY=0;exitDx=0;exitDy=0;" edge="1" parent="1" source="_ez2GbapAwy16mK7dTrn-6" target="_ez2GbapAwy16mK7dTrn-2">
          <mxGeometry width="160" relative="1" as="geometry">
            <mxPoint x="140" y="240" as="sourcePoint" />
            <mxPoint x="300" y="240" as="targetPoint" />
            <mxPoint as="offset" />
          </mxGeometry>
        </mxCell>
        <mxCell id="_ez2GbapAwy16mK7dTrn-5" value="&amp;lt;&amp;lt;Extend&amp;gt;&amp;gt;" style="endArrow=open;endSize=12;dashed=1;html=1;rounded=0;entryX=1;entryY=0.5;entryDx=0;entryDy=0;exitX=0;exitY=0.5;exitDx=0;exitDy=0;" edge="1" parent="1" source="_ez2GbapAwy16mK7dTrn-8" target="_ez2GbapAwy16mK7dTrn-7">
          <mxGeometry width="160" relative="1" as="geometry">
            <mxPoint x="140" y="270" as="sourcePoint" />
            <mxPoint x="300" y="270" as="targetPoint" />
            <mxPoint as="offset" />
          </mxGeometry>
        </mxCell>
        <mxCell id="_ez2GbapAwy16mK7dTrn-6" value="Выполнить лексический анализ" style="ellipse;whiteSpace=wrap;html=1;" vertex="1" parent="1">
          <mxGeometry x="460" y="325" width="140" height="70" as="geometry" />
        </mxCell>
        <mxCell id="_ez2GbapAwy16mK7dTrn-7" value="Выполнить синтаксический анализ" style="ellipse;whiteSpace=wrap;html=1;" vertex="1" parent="1">
          <mxGeometry x="460" y="440" width="140" height="70" as="geometry" />
        </mxCell>
        <mxCell id="_ez2GbapAwy16mK7dTrn-8" value="Разбор сложного логического выражения" style="ellipse;whiteSpace=wrap;html=1;" vertex="1" parent="1">
          <mxGeometry x="640" y="325" width="140" height="70" as="geometry" />
        </mxCell>
        <mxCell id="_ez2GbapAwy16mK7dTrn-12" value="&amp;lt;&amp;lt;Include&amp;gt;&amp;gt;" style="endArrow=open;endSize=12;dashed=1;html=1;rounded=0;entryX=0.5;entryY=1;entryDx=0;entryDy=0;" edge="1" parent="1" source="_ez2GbapAwy16mK7dTrn-7" target="_ez2GbapAwy16mK7dTrn-6">
          <mxGeometry width="160" relative="1" as="geometry">
            <mxPoint x="540" y="380" as="sourcePoint" />
            <mxPoint x="620" y="310" as="targetPoint" />
            <mxPoint as="offset" />
          </mxGeometry>
        </mxCell>
      </root>
    </mxGraphModel>
  </diagram>
</mxfile>
